<svg width="67" height="36" viewBox="0 0 134 73" fill="none" xmlns="http://www.w3.org/2000/svg">
<path d="M98.1626 59.0534C88.187 63.8845 77.981 66.4935 65.1968 67.7509C50.6986 67.3519 40.6328 65.1036 31.6198 60.4372C23.078 56.0149 15.2438 49.3036 5.40009 39.3549C15.8301 25.8327 25.1987 17.3358 35.128 12.2026C45.5436 6.81791 56.9132 4.96087 71.4267 5.32399C89.2618 7.59505 104.388 16.5011 127.642 38.7307C116.655 48.0808 107.439 54.5609 98.1626 59.0534Z" stroke="black" stroke-width="7"/>
<mask id="mask0_7_23" style="mask-type:alpha" maskUnits="userSpaceOnUse" x="0" y="1" width="133" height="71">
<path d="M97.2908 57.2533C87.6025 61.9453 77.6689 64.5041 65.1261 65.7482C50.8883 65.3449 41.1766 63.1329 32.5393 58.6612C24.6306 54.5665 17.2779 48.4074 8.06064 39.1934C17.954 26.611 26.8053 18.7567 36.0464 13.9792C46.0392 8.81316 57.013 6.97405 71.2746 7.32084C88.0243 9.47901 102.459 17.6887 124.646 38.6428C114.476 47.1608 105.882 53.0927 97.2908 57.2533Z" fill="white" stroke="white" stroke-width="11"/>
</mask>
<g mask="url(#mask0_7_23)">
<path d="M35.7795 37.1161C36.8167 52.0746 43.558 56.201 48.7435 59.2959C53.9291 62.3908 66.6339 67.291 79.3386 61.1012C92.0433 54.9114 94.6361 48.4639 94.8954 37.1161C95.1546 25.7683 84.5242 8.7465 63.5225 9.77812C42.5208 10.8097 34.7424 22.1576 35.7795 37.1161Z" stroke="black" stroke-width="11"/>
</g>
</svg>
